<svg width="18" height="11" viewBox="0 0 18 11" fill="none" xmlns="http://www.w3.org/2000/svg">
<path d="M17.587 0.724C17.713 0.306 17.587 0 16.993 0H15.023C14.521 0 14.293 0.265 14.167 0.556C14.167 0.556 13.165 2.998 11.746 4.582C11.288 5.042 11.078 5.188 10.829 5.188C10.704 5.188 10.522 5.043 10.522 4.625V0.724C10.522 0.223 10.378 0 9.96 0H6.865C6.552 0 6.363 0.232 6.363 0.453C6.363 0.927 7.073 1.037 7.146 2.373V5.273C7.146 5.908 7.032 6.023 6.78 6.023C6.113 6.023 4.489 3.573 3.525 0.766C3.337 0.221 3.148 0.000999928 2.645 0.000999928H0.675C0.112 -7.25267e-08 0 0.266 0 0.557C0 1.08 0.667 3.667 3.109 7.088C4.737 9.425 7.029 10.691 9.116 10.691C10.367 10.691 10.521 10.411 10.521 9.925V8.159C10.521 7.597 10.641 7.483 11.037 7.483C11.328 7.483 11.829 7.631 12.998 8.756C14.333 10.091 14.554 10.69 15.304 10.69H17.273C17.835 10.69 18.116 10.41 17.955 9.854C17.778 9.302 17.14 8.498 16.294 7.546C15.834 7.004 15.147 6.42 14.937 6.128C14.645 5.752 14.73 5.585 14.937 5.251C14.938 5.252 17.337 1.873 17.587 0.724Z" fill="white"/>
</svg>
