<svg width="18" height="18" viewBox="0 0 18 18" fill="none" xmlns="http://www.w3.org/2000/svg">
<path d="M13.122 10.787C12.896 10.673 11.798 10.137 11.592 10.06C11.387 9.987 11.238 9.949 11.089 10.174C10.942 10.394 10.511 10.898 10.379 11.044C10.249 11.191 10.119 11.203 9.897 11.104C9.671 10.989 8.95 10.754 8.095 9.987C7.427 9.393 6.982 8.66 6.85 8.435C6.718 8.212 6.835 8.085 6.946 7.975C7.049 7.872 7.172 7.717 7.286 7.582C7.395 7.447 7.43 7.356 7.509 7.21C7.582 7.052 7.544 6.929 7.489 6.817C7.433 6.707 6.985 5.602 6.797 5.162C6.618 4.726 6.431 4.782 6.293 4.782C6.164 4.769 6.015 4.769 5.866 4.769C5.75338 4.77197 5.64248 4.79738 5.53979 4.84374C5.43711 4.8901 5.34471 4.95649 5.268 5.039C5.063 5.264 4.483 5.803 4.483 6.893C4.483 7.986 5.285 9.043 5.397 9.202C5.511 9.348 6.976 11.598 9.223 12.565C9.759 12.791 10.175 12.925 10.5 13.037C11.036 13.207 11.526 13.183 11.912 13.127C12.34 13.057 13.236 12.585 13.424 12.058C13.614 11.528 13.614 11.088 13.559 10.989C13.503 10.887 13.357 10.831 13.132 10.731L13.122 10.787ZM9.047 16.312H9.035C7.705 16.312 6.389 15.952 5.241 15.278L4.971 15.118L2.159 15.85L2.915 13.113L2.733 12.832C1.99016 11.651 1.59603 10.2842 1.596 8.889C1.596 4.805 4.939 1.474 9.052 1.474C10.0308 1.47124 11.0003 1.66268 11.9046 2.03723C12.8089 2.41177 13.6298 2.96198 14.32 3.656C15.0138 4.34139 15.5641 5.15808 15.9389 6.05843C16.3137 6.95878 16.5055 7.92476 16.503 8.9C16.497 12.981 13.157 16.312 9.049 16.312H9.047ZM15.389 2.587C13.68 0.934 11.43 0 9.035 0C4.098 0 0.079 4.002 0.075 8.92C0.075 10.491 0.486 12.023 1.271 13.38L0 18L4.752 16.76C6.06818 17.4701 7.53948 17.8439 9.035 17.848H9.038C13.978 17.848 17.998 13.845 18 8.924C18.0033 7.75119 17.7732 6.58945 17.323 5.50646C16.8729 4.42348 16.2117 3.44091 15.378 2.616L15.389 2.587Z" fill="white"/>
</svg>
