<svg width="16" height="12" viewBox="0 0 16 12" fill="none" xmlns="http://www.w3.org/2000/svg">
<path d="M15.674 1.76101C15.5831 1.42319 15.4052 1.11507 15.1582 0.867344C14.9112 0.619614 14.6036 0.440905 14.266 0.349007C13.014 0.0060074 8.006 7.43043e-06 8.006 7.43043e-06C8.006 7.43043e-06 2.998 -0.00599262 1.746 0.323007C1.40842 0.418882 1.10116 0.599933 0.853723 0.848775C0.606282 1.09762 0.426969 1.40589 0.333001 1.74401C0.00300112 2.99601 9.68315e-07 5.59301 9.68315e-07 5.59301C9.68315e-07 5.59301 -0.00299925 8.20301 0.325001 9.44101C0.41618 9.77876 0.594234 10.0868 0.841438 10.3343C1.08864 10.5819 1.39637 10.7603 1.734 10.852C2.999 11.196 7.994 11.202 7.994 11.202C7.994 11.202 13.002 11.207 14.254 10.879C14.5916 10.7873 14.8995 10.6091 15.1471 10.362C15.3948 10.1149 15.5736 9.80744 15.666 9.47001C15.997 8.21901 16 5.62301 16 5.62301C16 5.62301 16.016 3.01301 15.674 1.76101ZM6.404 7.99801L6.408 3.20201L10.57 5.60401L6.403 7.99801H6.404Z" fill="white"/>
</svg>
