<svg width="20" height="20" viewBox="0 0 20 20" fill="none" xmlns="http://www.w3.org/2000/svg">
<path d="M6.113 7.75C6.113 7.94891 6.19201 8.13968 6.33267 8.28033C6.47332 8.42098 6.66408 8.5 6.863 8.5C7.06191 8.5 7.25267 8.42098 7.39333 8.28033C7.53398 8.13968 7.613 7.94891 7.613 7.75V5.5H12.113V7.75C12.113 7.94891 12.192 8.13968 12.3327 8.28033C12.4733 8.42098 12.6641 8.5 12.863 8.5C13.0619 8.5 13.2527 8.42098 13.3933 8.28033C13.534 8.13968 13.613 7.94891 13.613 7.75V5.512C13.878 5.521 14.103 5.536 14.3 5.562C14.737 5.619 14.929 5.718 15.058 5.84C15.188 5.962 15.298 6.148 15.382 6.58C15.469 7.034 15.507 7.644 15.562 8.556L15.987 15.676C16.018 16.194 16.035 16.506 16.018 16.73C16.0152 16.7946 16.0037 16.8585 15.984 16.92L15.982 16.922L15.971 16.927C15.9142 16.9476 15.8551 16.9611 15.795 16.967C15.572 16.998 15.259 17 14.74 17H4.986C4.466 17 4.154 16.998 3.931 16.968C3.87089 16.9621 3.81177 16.9486 3.755 16.928L3.745 16.922H3.743L3.742 16.92C3.72222 16.8585 3.71079 16.7946 3.708 16.73C3.69 16.506 3.708 16.194 3.738 15.675L4.164 8.555C4.219 7.645 4.257 7.035 4.344 6.58C4.428 6.148 4.538 5.962 4.668 5.84C4.797 5.718 4.988 5.619 5.426 5.562C5.623 5.536 5.848 5.521 6.113 5.512V7.75ZM7.74 4H11.984C11.8287 3.56131 11.5413 3.18152 11.1613 2.91292C10.7813 2.64431 10.3274 2.50008 9.862 2.50008C9.39664 2.50008 8.94272 2.64431 8.5627 2.91292C8.18269 3.18152 7.89527 3.56131 7.74 4ZM13.539 4.01C13.3678 3.16096 12.9081 2.39732 12.2378 1.84873C11.5676 1.30014 10.7281 1.0004 9.862 1.0004C8.99587 1.0004 8.15642 1.30014 7.48618 1.84873C6.81593 2.39732 6.35619 3.16096 6.185 4.01C5.831 4.019 5.513 4.037 5.23 4.074C4.63 4.154 4.086 4.326 3.638 4.748C3.19 5.171 2.985 5.702 2.87 6.297C2.762 6.859 2.72 7.568 2.669 8.417L2.666 8.467L2.24 15.586L2.237 15.632C2.21 16.089 2.185 16.506 2.211 16.846C2.24 17.218 2.336 17.617 2.65 17.95C2.963 18.283 3.356 18.403 3.726 18.454C4.063 18.5 4.481 18.5 4.939 18.5H14.786C15.244 18.5 15.661 18.5 15.999 18.454C16.369 18.403 16.762 18.283 17.075 17.95C17.389 17.617 17.485 17.218 17.514 16.846C17.54 16.506 17.514 16.089 17.488 15.632L17.485 15.586L17.059 8.466L17.056 8.416C17.006 7.568 16.963 6.859 16.855 6.296C16.74 5.702 16.535 5.171 16.087 4.748C15.639 4.326 15.095 4.153 14.495 4.074C14.178 4.03608 13.8592 4.01438 13.54 4.009L13.539 4.01Z" fill="white"/>
</svg>
