<svg width="20" height="20" viewBox="0 0 20 20" fill="none" xmlns="http://www.w3.org/2000/svg">
<path fill-rule="evenodd" clip-rule="evenodd" d="M12.702 6C12.702 6.66304 12.4386 7.29893 11.9698 7.76777C11.5009 8.23661 10.865 8.5 10.202 8.5C9.53896 8.5 8.90307 8.23661 8.43423 7.76777C7.96539 7.29893 7.702 6.66304 7.702 6C7.702 5.33696 7.96539 4.70107 8.43423 4.23223C8.90307 3.76339 9.53896 3.5 10.202 3.5C10.865 3.5 11.5009 3.76339 11.9698 4.23223C12.4386 4.70107 12.702 5.33696 12.702 6ZM14.202 6C14.202 7.06087 13.7806 8.07828 13.0304 8.82843C12.2803 9.57857 11.2629 10 10.202 10C9.14113 10 8.12372 9.57857 7.37357 8.82843C6.62343 8.07828 6.202 7.06087 6.202 6C6.202 4.93913 6.62343 3.92172 7.37357 3.17157C8.12372 2.42143 9.14113 2 10.202 2C11.2629 2 12.2803 2.42143 13.0304 3.17157C13.7806 3.92172 14.202 4.93913 14.202 6ZM8.547 10.75C5.957 10.75 3.096 11.935 2.327 14.75C2.187 15.266 2.074 15.825 2.01 16.421C1.898 17.467 2.759 18.25 3.702 18.25H16.702C17.645 18.25 18.506 17.467 18.394 16.421C18.3325 15.8568 18.2261 15.2984 18.076 14.751C17.308 11.935 14.447 10.75 11.856 10.75H8.546H8.547ZM3.774 15.145C4.286 13.272 6.277 12.25 8.547 12.25H11.857C14.127 12.25 16.117 13.272 16.629 15.145C16.751 15.592 16.847 16.073 16.902 16.582C16.9044 16.601 16.9024 16.6204 16.8959 16.6384C16.8895 16.6565 16.8789 16.6728 16.865 16.686C16.8435 16.707 16.8179 16.7234 16.79 16.7344C16.762 16.7454 16.7321 16.7507 16.702 16.75H3.702C3.67194 16.7507 3.64204 16.7454 3.61405 16.7344C3.58606 16.7234 3.56054 16.707 3.539 16.686C3.52485 16.6729 3.51401 16.6567 3.5074 16.6386C3.5008 16.6205 3.4986 16.6011 3.501 16.582C3.556 16.072 3.653 15.592 3.774 15.145Z" fill="#0E0E0E"/>
</svg>
