<svg width="20" height="20" viewBox="0 0 20 20" fill="none" xmlns="http://www.w3.org/2000/svg">
<path fill-rule="evenodd" clip-rule="evenodd" d="M3.5 9.168C3.49973 7.66519 4.0964 6.22381 5.15877 5.16089C6.22113 4.09796 7.66219 3.50053 9.165 3.5C10.6678 3.50053 12.1089 4.09796 13.1712 5.16089C14.2336 6.22381 14.8303 7.66519 14.83 9.168C14.8303 10.6708 14.2336 12.1122 13.1712 13.1751C12.1089 14.238 10.6678 14.8355 9.165 14.836C7.66219 14.8355 6.22113 14.238 5.15877 13.1751C4.0964 12.1122 3.49973 10.6708 3.5 9.168ZM9.165 2C7.26437 2.00053 5.44177 2.75599 4.0981 4.10023C2.75444 5.44446 1.99973 7.26737 2 9.168C2.00043 10.5913 2.42462 11.9822 3.21849 13.1635C4.01237 14.3447 5.13998 15.2629 6.45763 15.801C7.77528 16.339 9.22328 16.4726 10.6171 16.1846C12.0109 15.8966 13.2875 15.2002 14.284 14.184L17.381 17.284C17.4502 17.3557 17.5329 17.4128 17.6244 17.4522C17.7159 17.4915 17.8143 17.5123 17.9138 17.5132C18.0134 17.5141 18.1122 17.4952 18.2044 17.4575C18.2966 17.4198 18.3803 17.3642 18.4508 17.2938C18.5212 17.2234 18.577 17.1397 18.6147 17.0475C18.6525 16.9554 18.6715 16.8566 18.6707 16.7571C18.6699 16.6575 18.6492 16.559 18.61 16.4675C18.5707 16.376 18.5136 16.2932 18.442 16.224L15.222 13C15.9482 11.8536 16.3325 10.524 16.33 9.167C16.33 7.26654 15.5752 5.44389 14.2315 4.09987C12.8879 2.75586 11.0655 2.00053 9.165 2Z" fill="#0E0E0E"/>
</svg>
